<?xml version="1.0" encoding="utf-8"?>
<!-- Generator: Adobe Illustrator 27.5.0, SVG Export Plug-In . SVG Version: 6.00 Build 0)  -->
<svg version="1.1" xmlns="http://www.w3.org/2000/svg" xmlns:xlink="http://www.w3.org/1999/xlink" x="0px" y="0px"
	 viewBox="0 0 750 500" style="enable-background:new 0 0 750 500;" xml:space="preserve">
<g id="BACKGROUND">
</g>
<g id="OBJECTS">
	<g>
		<path style="fill:#DEDEFF;" d="M641.255,390.967c0,27.76-8.26,53.59-22.45,75.17h-468.15c-26.13-30.67-41.91-70.44-41.91-113.89
			c0-97.02,78.65-175.67,175.67-175.67c5.97,0,11.87,0.3,17.69,0.89c23.54-41.46,68.09-69.43,119.16-69.43
			c75.63,0,136.95,61.31,136.95,136.95c0,6.61-0.48,13.11-1.39,19.48C606.395,285.067,641.255,333.947,641.255,390.967z"/>
		
			<line style="fill:none;stroke:#130F40;stroke-width:0.75;stroke-linecap:round;stroke-linejoin:round;stroke-miterlimit:10;" x1="137.251" y1="466.137" x2="631.579" y2="466.137"/>
	</g>
	<g>
		<path style="fill:#CACAFF;" d="M540.285,272.512H420.199c-6.436,0-11.653-5.217-11.653-11.653v-149.68
			c0-6.435,5.217-11.653,11.653-11.653h120.087c6.436,0,11.653,5.217,11.653,11.653v149.68
			C551.938,267.294,546.721,272.512,540.285,272.512z"/>
		<g>
			<path style="fill:#6A6AE2;" d="M480.236,132.052v107.934h-25.247c2.905-18.082,6.031-87.537,6.031-87.537l-27.111,9.978
				l-4.167-13.011c0,0,18.301-9.654,34.901-14.563c2.975-0.88,5.892-1.609,8.647-2.107
				C475.768,132.307,478.118,132.052,480.236,132.052z"/>
			<path style="fill:#6A6AE2;" d="M480.242,132.046c17.578,0,50.5,17.364,50.5,17.364l-4.171,13.023l-27.112-9.984
				c0,0,3.128,69.456,6.033,87.543h-25.25"/>
			<path style="fill:#B3B3FF;" d="M466.924,150.701l3.623-4.04l-4.63-0.139l-1.273-11.669c2.975-0.88,5.892-1.609,8.647-2.107
				l6.946,35.909L466.924,150.701z"/>
			<path style="fill:#B3B3FF;" d="M493.554,150.701l-3.623-4.04l4.63-0.139l1.273-11.669c-2.975-0.88-5.892-1.609-8.647-2.107
				l-6.945,35.909L493.554,150.701z"/>
			<path style="fill:none;stroke:#130F40;stroke-width:0.75;stroke-linecap:round;stroke-linejoin:round;stroke-miterlimit:10;" d="
				M480.242,168.655v62.601c0,4.822-3.909,8.73-8.73,8.73l0,0"/>
		</g>
	</g>
	<g>
		<g>
			
				<rect x="535.478" y="144.48" transform="matrix(0.9915 0.13 -0.13 0.9915 35.6256 -69.2325)" style="fill:#B3B3FF;" width="25" height="187.431"/>
			<g>
				
					<line style="fill:none;stroke:#130F40;stroke-width:0.75;stroke-linecap:round;stroke-linejoin:round;stroke-miterlimit:10;" x1="561.313" y1="165.038" x2="570.03" y2="166.182"/>
				
					<line style="fill:none;stroke:#130F40;stroke-width:0.75;stroke-linecap:round;stroke-linejoin:round;stroke-miterlimit:10;" x1="559.167" y1="181.403" x2="567.884" y2="182.546"/>
				
					<line style="fill:none;stroke:#130F40;stroke-width:0.75;stroke-linecap:round;stroke-linejoin:round;stroke-miterlimit:10;" x1="557.021" y1="197.767" x2="565.737" y2="198.91"/>
				
					<line style="fill:none;stroke:#130F40;stroke-width:0.75;stroke-linecap:round;stroke-linejoin:round;stroke-miterlimit:10;" x1="554.875" y1="214.132" x2="563.591" y2="215.275"/>
				
					<line style="fill:none;stroke:#130F40;stroke-width:0.75;stroke-linecap:round;stroke-linejoin:round;stroke-miterlimit:10;" x1="552.729" y1="230.496" x2="561.445" y2="231.639"/>
				
					<line style="fill:none;stroke:#130F40;stroke-width:0.75;stroke-linecap:round;stroke-linejoin:round;stroke-miterlimit:10;" x1="550.583" y1="246.86" x2="559.299" y2="248.003"/>
				
					<line style="fill:none;stroke:#130F40;stroke-width:0.75;stroke-linecap:round;stroke-linejoin:round;stroke-miterlimit:10;" x1="548.436" y1="263.225" x2="557.153" y2="264.368"/>
				
					<line style="fill:none;stroke:#130F40;stroke-width:0.75;stroke-linecap:round;stroke-linejoin:round;stroke-miterlimit:10;" x1="546.29" y1="279.589" x2="555.007" y2="280.732"/>
				
					<line style="fill:none;stroke:#130F40;stroke-width:0.75;stroke-linecap:round;stroke-linejoin:round;stroke-miterlimit:10;" x1="544.144" y1="295.953" x2="552.861" y2="297.096"/>
				
					<line style="fill:none;stroke:#130F40;stroke-width:0.75;stroke-linecap:round;stroke-linejoin:round;stroke-miterlimit:10;" x1="541.998" y1="312.318" x2="550.715" y2="313.461"/>
			</g>
		</g>
		<g>
			
				<rect x="508.208" y="232.427" transform="matrix(0.9973 0.0737 -0.0737 0.9973 25.2982 -37.1876)" style="fill:#F4CC4D;" width="16.668" height="183.54"/>
			<path style="fill:#ED6756;" d="M531.698,278.463l-23.426-1.731l6.381-49.178c0.606-4.674,4.538-8.068,8.966-7.741l1.265,0.093
				c4.428,0.327,7.818,4.263,7.731,8.975L531.698,278.463z"/>
		</g>
		<g>
			<rect x="493.203" y="209.528" style="fill:#171659;" width="15.61" height="171.898"/>
			<polygon style="fill:#FFFFFF;" points="508.818,209.525 493.199,209.525 498.02,189.195 501.008,176.579 503.997,189.195 			"/>
			<polygon style="fill:#EB4D4B;" points="503.997,189.195 498.02,189.195 501.008,176.579 			"/>
		</g>
		<g>
			
				<rect x="486.019" y="240.438" transform="matrix(0.9884 -0.1519 0.1519 0.9884 -43.7363 78.3591)" style="fill:#54C3EA;" width="9.822" height="169.921"/>
			<polygon style="fill:#FFFFFF;" points="482.878,240.676 473.165,242.169 474.22,229.066 474.872,220.934 477.937,228.495 			"/>
			<polygon style="fill:#171659;" points="477.937,228.495 474.22,229.066 474.872,220.934 			"/>
		</g>
		<path style="fill:#6A6AE2;" d="M540.416,466.137H491.61c-5.49,0-10.036-4.223-10.386-9.647l-9.378-145.438h88.333l-9.378,145.438
			C550.452,461.914,545.906,466.137,540.416,466.137z"/>
	</g>
	<g>
		<path style="fill:#54C3EA;" d="M280.035,82.027c-10.4-3-31.6,31-51.725,71s-35,106.755-35,106.755h13.125
			C244.935,116.027,290.435,85.027,280.035,82.027z"/>
		<path style="fill:#54C3EA;" d="M160.935,260.746c0,0-1.5-62.654,6-128.187c7.5-65.533,15.25-94.533,26.375-93.033
			s-13.125,33-16.249,223.65L160.935,260.746z"/>
		<path style="fill:#54C3EA;" d="M176.591,262.406c0,0,7.896-74.092,27.757-140.934c19.861-66.842,41.646-91.726,50.21-87.063
			c8.564,4.664-32.913,43.842-61.73,228.429L176.591,262.406z"/>
		<path style="fill:#54C3EA;" d="M156.435,265.875c0,0-2-40.903-12.5-88.126c-10.5-47.222-19-67.722-11-69.722
			s31,114.646,31,157.573L156.435,265.875z"/>
		<path style="fill:#FFFFFF;" d="M210.317,466.137h-43.15c-9.937,0-17.993-8.056-17.993-17.992V255.98h79.135v192.164
			C228.31,458.081,220.254,466.137,210.317,466.137z"/>
	</g>
	<g>
		<path style="fill:#6A6AE2;" d="M429.685,466.137h-45l-17.01-154.86l-18.48-166.05c6.77,2.62,16.74,6.39,23.96,8.68
			c6.9,2.19,16.84,4.31,24.02,5.71c2.553,14.277,10.258,61.034,9.205,98.864c-0.247,8.889,0.866,17.765,3.431,26.279
			c0.603,2.002,1.23,4.249,1.853,6.736c2.97,11.8,5.86,29,5.75,50.95C417.185,387.027,432.935,428.387,429.685,466.137z"/>
		<polygon style="fill:#EB4D4B;" points="385.105,157.697 385.105,291.157 229.435,291.157 229.435,157.357 275.105,134.027 
			280.035,108.027 328.625,108.027 335.765,142.027 		"/>
		<path style="fill:#6A6AE2;" d="M422.105,466.137h-191v-310.85l36-17.26l20.2,21.56c5.85,11.22,13.11,24.55,21.72,39.28
			c1.57,2.68,3.18,5.42,4.84,8.19c6.37,10.66,13.39,21.94,21.04,33.58c19.55,29.79,43.21,62,70.57,92.43
			c2.51,2.8,5.05,5.58,7.63,8.34l-7.038,19.971c-3.483,9.883-3.563,20.637-0.237,30.574
			C410.805,406.812,418.018,434.277,422.105,466.137z"/>
		<path style="fill:#6A6AE2;" d="M411.665,291.496c-3.02,8.23-7.45,15.16-13.73,19.78h-46.25l-10-169c0,0,3.06,1.23,7.51,2.95
			c6.77,2.62,16.74,6.39,23.96,8.68c6.9,2.19,16.84,4.31,24.02,5.71c0.052,0.01,0.105,0.02,0.157,0.031
			c5.01,0.973,8.704,5.233,8.948,10.331c0.339,7.071,1.406,17.648,4.535,28.669C415.135,213.867,422.765,261.387,411.665,291.496z"
			/>
		<path style="fill:#6A6AE2;" d="M258.177,434.874c2.635,7.953,2.592,16.548-0.51,24.33l-0.372,0.933l-1.01,2.53l-97.18-2.53
			l-9.93-10.84c4.9-9.5,20.59-11.99,20.59-11.99l0,0c-1.102-1.682-1.305-3.81-0.51-5.657c3.041-7.065,0.021-5.595-1.32-68.623
			c-1.5-70.5,51.83-194.33,51.83-194.33c-0.11-0.59-0.16-1.17-0.16-1.75c0-3.71,2.12-7.17,5.56-8.81l5.94-2.85l36-17.26l20.2,21.56
			c5.85,11.22,13.11,24.55,21.72,39.28c-14.68,15.92-45.96,55.24-55.92,110.22c-10.767,59.414-1.794,94.79,1.853,107.178
			c0.809,2.747,1.249,5.581,1.393,8.44C256.557,428.768,257.271,432.139,258.177,434.874z"/>
		<path style="fill:none;stroke:#130F40;stroke-width:0.75;stroke-linecap:round;stroke-linejoin:round;stroke-miterlimit:10;" d="
			M222.768,169.193c0,0,25.208,1.833,35.437,29.835"/>
		<path style="fill:#171659;" d="M328.625,108.027h-48.59l0,0c0.621-3.288,3.493-5.67,6.84-5.67h34.908
			c3.293,0,6.136,2.308,6.812,5.531L328.625,108.027z"/>
		<path style="fill:#CACAFF;" d="M334.905,240.637c-17.62,1.47-32.92,1-45.79-0.41c-13.51-1.48-24.32-4-32.29-6.4
			c-9.69-2.93-16.09-12.13-15.57-22.24l3.678-71.109c0.179-3.469,2.266-6.554,5.419-8.012l10.811-4.999
			c4.667-2.158,10.2-0.154,12.391,4.498c6.245,13.261,19.944,41.015,40.311,75.091C320.235,217.717,327.255,228.997,334.905,240.637
			z"/>
		<path style="fill:#CACAFF;" d="M405.475,333.067c-42.55-2.81-93.97-27.96-122.33-43.64c-11.51-6.36-14.74-21.44-6.87-31.98
			l37.59-50.39c6.37,10.66,13.39,21.94,21.04,33.58c4.33,6.6,8.86,13.32,13.59,20.11c7.54,10.82,15.58,21.83,24.09,32.83
			C382.855,306.847,393.835,320.116,405.475,333.067z"/>
		
			<line style="fill:none;stroke:#130F40;stroke-width:0.5;stroke-linecap:round;stroke-linejoin:round;stroke-miterlimit:10;" x1="289.115" y1="240.227" x2="313.865" y2="207.057"/>
		<path style="fill:#171659;" d="M158.457,465.887h94.131c2.936,0,4.784-3.314,3.097-5.717c-1.299-1.851-3.651-3.703-7.874-4.783
			c-10.75-2.75-16.375-13-31.375-13c-15,0-19.5,10.5-32.5,10.5s-10.375-9.625-23.5-9.625c-5.332,0-8.972,2.537-11.265,6.037
			C144.504,456.421,149.942,465.887,158.457,465.887z"/>
		<path style="fill:none;stroke:#130F40;stroke-width:0.75;stroke-linecap:round;stroke-linejoin:round;stroke-miterlimit:10;" d="
			M268.435,241.536c0,0-0.244,19.355-6.98,36.18c-3.45,9.77-6.34,20.25-8.35,31.37c-10.77,59.4-1.8,94.78,1.85,107.17
			c0.81,2.75,1.25,5.59,1.4,8.45c0.2,4.06,0.92,7.43,1.82,10.17c2.64,7.95,2.59,16.54-0.51,24.33l-0.37,0.93"/>
		<path style="fill:none;stroke:#130F40;stroke-width:0.75;stroke-linecap:round;stroke-linejoin:round;stroke-miterlimit:10;" d="
			M264.063,270.062c0,0,5.712-14.623,12.042-25.079"/>
		<path style="fill:none;stroke:#130F40;stroke-width:0.75;stroke-linecap:round;stroke-linejoin:round;stroke-miterlimit:10;" d="
			M169.765,437.306c11.295-1.67,47.295-5.58,58.545,0"/>
		<path style="fill:none;stroke:#130F40;stroke-width:0.75;stroke-linecap:round;stroke-linejoin:round;stroke-miterlimit:10;" d="
			M193.676,434.869c0,0,22.509-9.483,34.634-10.108"/>
		<path style="fill:none;stroke:#130F40;stroke-width:0.75;stroke-linecap:round;stroke-linejoin:round;stroke-miterlimit:10;" d="
			M180.185,340.152c0,0,5.375,32.5,26.25,42.125"/>
		<path style="fill:none;stroke:#130F40;stroke-width:0.75;stroke-linecap:round;stroke-linejoin:round;stroke-miterlimit:10;" d="
			M380.435,331.86c0,0,17.531,1.494,20.682,6.664c3.151,5.17-6.571,22.336-6.571,22.336"/>
		<path style="fill:#CACAFF;" d="M333.777,132.56c3.408,14.967,19.158,113.796,14.408,180.756c0,0,29.91-18.973,48.927-49.442
			c4.684-7.505,3.436-17.273-2.962-23.384c-5.219-4.985-12.349-10.816-20.965-15.464l12.713-8.383
			c7.999-5.275,10.143-16.07,4.766-24.001l-31.503-46.472c-4.349-6.416-11.065-10.844-18.675-12.314L333.777,132.56z"/>
		<path style="fill:none;stroke:#130F40;stroke-width:0.75;stroke-linecap:round;stroke-linejoin:round;stroke-miterlimit:10;" d="
			M348.495,260.746c7.54,10.82,15.58,21.83,24.09,32.83"/>
		<path style="fill:none;stroke:#130F40;stroke-width:0.75;stroke-linecap:round;stroke-linejoin:round;stroke-miterlimit:10;" d="
			M397.175,159.617c2.553,14.277,10.258,61.034,9.205,98.864c-0.247,8.889,0.866,17.765,3.431,26.279
			c0.603,2.002,1.23,4.249,1.853,6.736"/>
		<path style="fill:none;stroke:#130F40;stroke-width:0.75;stroke-linecap:round;stroke-linejoin:round;stroke-miterlimit:10;" d="
			M422.105,466.137c-4.087-31.86-11.3-59.324-16.275-74.185c-3.327-9.937-3.247-20.691,0.237-30.574l7.038-19.971l-4.593-4.98"/>
		<path style="fill:#171659;" d="M310.413,89.11c0-3.36-2.724-6.083-6.083-6.083s-6.083,2.724-6.083,6.083
			c0,2.233,1.206,4.179,2.999,5.237v9.013h6.168v-9.013C309.207,93.289,310.413,91.343,310.413,89.11z"/>
	</g>
	<g>
		<path style="fill:#FF8E77;" d="M400.581,335.699c0,0-9.25-1.625-11,1.25s-0.25,8.875,1.563,9.063s4.688-1.563,4.688-1.563
			s5.438,1.744,8.125-3.815L400.581,335.699z"/>
		<path style="fill:#F4CC4D;" d="M487.518,452.887h-15.75c0,0-12.05-28.06-19.09-64.27c-2.33-12-4.11-24.91-4.72-37.98v-6.25
			l18.05-3.08C466.008,341.306,469.768,407.137,487.518,452.887z"/>
		<path style="fill:#F4CC4D;" d="M438.435,345.47c0,0-6.157,26.417-5.287,107.417h16.62c0,0,0.5-63.75,7.5-101v-6.417H438.435z"/>
		<path style="fill:#171659;" d="M443.512,245.431c0,0-3.612-6.307-0.825-12.813c0,0-0.678,3.339,0.958,6.598
			c0,0,1.413-3.644,4.682-5.21c0,0-3.785,7.745-3.073,12.501L443.512,245.431z"/>
		<path style="fill:#171659;" d="M444.455,246.012c0,0-0.062-8,6.126-7.813s8.125,15.125-3.5,10.5L444.455,246.012z"/>
		<path style="fill:#EB4D4B;" d="M447.001,250.197c-1.185,1.356-3.245,1.495-4.601,0.31c-1.356-1.185-1.495-3.245-0.31-4.601
			c1.185-1.356,2.751-0.93,4.107,0.255C447.553,247.346,448.186,248.841,447.001,250.197z"/>
		<path style="fill:#FF8E77;" d="M452.768,281.887l-10.56,4.81l-4.38-9.56c-4.79,3.92-8.54,1.9-11.33-2.39l-1.95,0.89
			c-0.64,0.29-1.31-0.31-1.1-0.98l0.483-1.519c0.396-1.243,0.36-2.581-0.112-3.797c-0.823-2.123-1.5-4.384-2.052-6.573
			c0-0.01,0-0.01,0-0.01c-0.06-0.24-0.11-0.47-0.17-0.7c0-0.02-0.01-0.03-0.01-0.05c-0.11-0.53-0.2-1.06-0.25-1.6c0,0,0,0,0-0.01
			c-0.05-0.45-0.07-0.91-0.07-1.38c0-8.35,7.22-15,15.76-14.04c6.38,0.72,11.57,5.83,12.37,12.2c0.45,3.57-0.43,6.92-2.21,9.62
			c-0.68,1.01-0.93,2.22-0.75,3.38c0.09,0.59,0.28,1.17,0.59,1.7L452.768,281.887z"/>
		<path style="fill:#171659;" d="M426.841,268.523c0.162,0.521,0.097,1.005-0.145,1.08c-0.242,0.075-0.569-0.286-0.731-0.808
			c-0.162-0.521-0.097-1.005,0.145-1.08C426.352,267.641,426.68,268.002,426.841,268.523z"/>
		<path style="fill:#171659;" d="M447.188,266.797c-0.68,1.01-0.93,2.22-0.75,3.38c-1.35,0.94-2.86,1.35-3.92-0.25
			c-0.42-0.63-0.94-1.16-1.53-1.59c-2.71-2.06-6.66-2.2-6.66-2.2c-0.52-0.03-0.97-0.13-1.36-0.29c-3.36-1.27-2.2-6.34-2.2-6.34
			c-4.06,2.55-2.56-2.06-2.56-2.06l-1.51,1.21c-0.83,0.67-2.04-0.04-1.88-1.1c0.18-1.18,0.45-2.11,0.45-2.11
			c-2.96,1.36-3.73,3.81-3.93,4.95c-0.05-0.45-0.07-0.91-0.07-1.38c0-8.35,7.22-15,15.76-14.04c6.38,0.72,11.57,5.83,12.37,12.2
			C449.848,260.746,448.968,264.096,447.188,266.797z"/>
		<path style="fill:#FF8E77;" d="M437.004,261.878c-3.304-0.632-3.255,4.47-3.255,4.47l2.332,3.45
			C442.712,271.061,440.308,262.51,437.004,261.878z"/>
		<path style="fill:none;stroke:#EB4D4B;stroke-width:0.5;stroke-linecap:round;stroke-linejoin:round;stroke-miterlimit:10;" d="
			M440.202,267.849c-0.329,1.444-1.54,2.438-4.122,1.949"/>
		<path style="fill:none;stroke:#EB4D4B;stroke-width:0.5;stroke-linecap:round;stroke-linejoin:round;stroke-miterlimit:10;" d="
			M435.514,267.849c0,0-0.783-4.152,1.253-4.471c2.036-0.319,1.905,2.236,1.905,2.236"/>
		<path style="fill:none;stroke:#EB4D4B;stroke-width:0.5;stroke-linecap:round;stroke-linejoin:round;stroke-miterlimit:10;" d="
			M435.454,265.064c0,0,1.865,1.071,1.564,3.327"/>
		<path style="fill:none;stroke:#EB4D4B;stroke-width:0.5;stroke-linecap:round;stroke-linejoin:round;stroke-miterlimit:10;" d="
			M432.393,272.512c0,0-0.063,1.813-1.563,3"/>
		<path style="fill:#EB4D4B;" d="M438.141,286.262l-1.672-2.576c-1.079-1.663-0.681-3.87,0.906-5.058
			c2.721-2.038,7.708-4.735,11.717-4.795c1.051-0.016,2.001,0.624,2.432,1.582l1.994,4.432L438.141,286.262z"/>
		<path style="fill:#EB4D4B;" d="M468.148,338.647l0.62,6.61l-32.91,4.26l0.39-6.13l0,0c-1.829-0.738-2.939-2.602-2.705-4.561
			c0.447-3.749,1.196-10.055,1.845-15.569c0.43-3.62-0.78-4.18-2.24-5.17c-1.98-1.34-4.44-3.46-4-14.95l-2.8-5.07
			c0.64-1.18,1.22-2.26,1.73-3.21c1.55-2.92,3.75-5.44,6.44-7.37l7.5-5.35c3.38-2.42,7.53-3.49,11.66-3.03l0.94,0.11
			c4.65,0.53,8.64,3.51,10.47,7.79c-1.26,10.31-0.41,21.52,0.92,30.75c1.158,8.073,2.681,14.639,3.475,17.8
			C469.788,336.769,469.239,338.034,468.148,338.647L468.148,338.647z"/>
		<path style="fill:#EB4D4B;" d="M466.358,317.757h-3.84l-7.13-20.87l-15.1,7.13c-2.18,5.31-4.61,9.98-7.14,14.07
			c-11.67,18.88-28.38,25.3-28.38,25.3l-5.5-8.33l3.42-2.75c-0.41-1.64,0.04-3.36,1.16-4.62c7.29-8.17,17.98-21.33,22.5-29.62
			c0.64-1.18,1.22-2.26,1.73-3.21c1.55-2.92,3.75-5.44,6.44-7.37l7.5-5.35c3.38-2.42,7.53-3.49,11.66-3.03l0.94,0.11
			c4.65,0.53,8.64,3.51,10.47,7.79c0.06,0.12,0.11,0.25,0.16,0.37l7.96,20.35C475.098,312.547,471.548,317.757,466.358,317.757z"/>
		<path style="fill:none;stroke:#130F40;stroke-width:0.75;stroke-linecap:round;stroke-linejoin:round;stroke-miterlimit:10;" d="
			M440.288,304.017c-2.18,5.31-4.61,9.98-7.14,14.07"/>
		<path style="fill:none;stroke:#130F40;stroke-width:0.75;stroke-linecap:round;stroke-linejoin:round;stroke-miterlimit:10;" d="
			M466.008,317.757c-1.24-8.37-1.434-24.487-1.434-24.487"/>
		
			<line style="fill:none;stroke:#130F40;stroke-width:0.75;stroke-linecap:round;stroke-linejoin:round;stroke-miterlimit:10;" x1="439.185" y1="343.387" x2="464.574" y2="339.22"/>
		<path style="fill:none;stroke:#130F40;stroke-width:0.75;stroke-linecap:round;stroke-linejoin:round;stroke-miterlimit:10;" d="
			M457.268,351.887c-2.02,10.76-3.5,23.73-4.59,36.73"/>
		<polygon style="fill:#171659;" points="449.938,466.137 416.348,466.137 425.438,459.686 435.018,452.887 448.348,452.887 
			448.848,457.036 		"/>
		<path style="fill:#FF8E77;" d="M448.848,457.036c-3.77-1.68-11.21-0.58-16.7,2.48c-3.38,1.88-5.48,1.23-6.71,0.17l9.58-6.8h13.33
			L448.848,457.036z"/>
		<path style="fill:#171659;" d="M491.848,466.137h-36.88l9.09-6.45c1.23,1.06,3.33,1.71,6.71-0.17c5.49-3.06,14.17-3.59,17.94-1.91
			L491.848,466.137z"/>
		<path style="fill:#FF8E77;" d="M488.708,457.607c-3.77-1.68-12.45-1.15-17.94,1.91c-3.38,1.88-5.48,1.23-6.71,0.17l9.58-6.8h13.33
			L488.708,457.607z"/>
		<path style="fill:#FF8E77;" d="M488.708,457.607c-3.77-1.68-12.45-1.15-17.94,1.91c-3.38,1.88-5.48,1.23-6.71,0.17l9.58-6.8h13.33
			L488.708,457.607z"/>
	</g>
	<g>
		<path style="fill:#F4CC4D;" d="M318.868,354.36c-27.278,0-41.804,6.099-45.059,27.335c-1.312,8.56-3.103,17.047-5.347,25.41
			c-2.394,8.92-5.115,21.513-6.594,36.628c-1.174,11.995,8.207,22.404,20.233,22.404h87.472c16.998,0,29.259-16.622,23.938-32.802
			c-2.823-8.583-7.572-17.548-15.465-25.132c-5.073-4.874-8.837-10.986-10.886-17.723
			C362.935,376.587,351.135,354.36,318.868,354.36z"/>
		<polygon style="fill:#6A6AE2;" points="368.015,466.137 333.605,466.137 335.155,462.667 341.485,448.507 353.045,450.467 
			350.815,455.306 362.505,462.667 		"/>
		<path style="fill:#171659;" d="M318.868,408.86c0,0,19.983,0,34.65,4.25l-16.637,36l15.97,5.5l17.854-38.519
			c3.146-6.788-0.272-14.842-7.371-17.207c-6.373-2.123-15.725-6.042-29.15-6.484l-19.917,3.46L318.868,408.86z"/>
		<path style="fill:#FFFFFF;" d="M340.565,387.627l-4.01,0.46l-1.08-4.77c-0.29-7.37-1.29-14.54-1.29-14.54l1.48-19.78
			c1.83,1.46,3.18,3.48,3.83,5.78l6.87,24.19C347.515,383.027,344.755,387.147,340.565,387.627z"/>
		<path style="fill:#FFFFFF;" d="M335.475,383.317c0.16,4.07,1.853,6.064,1.293,9.083l-34.833,6.797l-0.18-8.06l-0.9-41.81
			c2.12-1.78,4.6-3.17,7.33-4.04l4.5-1.44c0.94,2.14,3.93,8.2,8.65,11.39l5.82-10.53l6.12,2.81c0.86,0.39,1.66,0.89,2.39,1.48
			l-1.48,19.78C334.185,368.777,335.185,375.947,335.475,383.317z"/>
		<path style="fill:none;stroke:#130F40;stroke-width:0.75;stroke-linecap:round;stroke-linejoin:round;stroke-miterlimit:10;" d="
			M334.867,359.656l-0.682,9.121c0,0,1,7.17,1.29,14.54"/>
		<path style="fill:#EB4D4B;" d="M306.778,391.734l0.821-19.427c0.048-1.135,0.982-2.03,2.118-2.03h31.572
			c1.504,0,2.529,1.522,1.965,2.916l-7.867,19.427c-0.324,0.8-1.101,1.324-1.965,1.324h-24.526
			C307.69,393.943,306.727,392.939,306.778,391.734z"/>
		<path style="fill:#FFFFFF;" d="M312.815,388.027l-11.06,3.11l-3.65,1.03c-4.17,1.18-8.2-2.28-7.66-6.59l2.77-22.24
			c0.69-5.57,3.49-10.54,7.64-14.01c2.12-1.78,4.6-3.17,7.33-4.04l0.58-0.18l2.99-0.96c3.76,8.81-6.38,16.57-6.38,16.57l-1.13,20.31
			l6.88-1.31L312.815,388.027z"/>
		<path style="fill:#FF8E77;" d="M311.122,379.714c0,0,13.813-5.813,14.438-3.813s-4.813,3.375-4.813,3.375l7.468,1.445
			c1.079,0.209,1.623,1.426,1.059,2.37l-2.02,3.375c-0.961,1.605-2.75,2.525-4.615,2.371l-9.829-0.811L311.122,379.714z"/>
		
			<line style="fill:none;stroke:#130F40;stroke-width:0.75;stroke-linecap:round;stroke-linejoin:round;stroke-miterlimit:10;" x1="312.815" y1="388.027" x2="301.755" y2="391.137"/>
		
			<line style="fill:none;stroke:#130F40;stroke-width:0.75;stroke-linecap:round;stroke-linejoin:round;stroke-miterlimit:10;" x1="311.122" y1="379.714" x2="300.008" y2="381.835"/>
		
			<line style="fill:none;stroke:#130F40;stroke-width:0.75;stroke-linecap:round;stroke-linejoin:round;stroke-miterlimit:10;" x1="305.375" y1="360.717" x2="304.245" y2="381.027"/>
		<path style="fill:#FF8E77;" d="M326.925,344.597c-1.077-0.497-2.19-0.887-3.323-1.175v-7.395h-9.625v7.455
			c-0.328,0.086-0.658,0.161-0.982,0.265l-0.31,0.1c0.94,2.14,3.93,8.2,8.65,11.39l5.82-10.53L326.925,344.597z"/>
		<path style="fill:#FF8E77;" d="M333.655,327.837c0,0.44-0.03,0.87-0.07,1.29c-0.03,0.62-0.09,1.26-0.18,1.9
			c-0.64,5.29-2.84,10.92-6.27,13.67c-1.36,1.1-2.9,1.75-4.62,1.75c-3.62,0-7.08-4.4-8.54-8.44c-0.04-0.12-0.09-0.25-0.13-0.37
			c-0.01-0.02-0.01-0.03-0.02-0.05c-2.91-2.26-4.8-5.78-4.8-9.75c0-6.8,5.51-12.31,12.31-12.31
			C328.135,315.527,333.655,321.037,333.655,327.837z"/>
		<path style="fill:none;stroke:#EB4D4B;stroke-width:0.5;stroke-linecap:round;stroke-linejoin:round;stroke-miterlimit:10;" d="
			M327.135,344.697c-1.36,1.1-2.9,1.75-4.62,1.75c-3.62,0-7.08-4.4-8.54-8.44"/>
		<path style="fill:#130F40;" d="M333.655,327.837c0,0.44-0.03,0.87-0.07,1.29c-0.03,0.62-0.09,1.26-0.18,1.9
			c-0.66-4.02-2.41-6.69-2.41-6.69c-3.62,3.57-14.81,0-14.81,0c-3.06,3.38-1.63,11.63-1.63,11.63l-0.71,1.67
			c-0.01-0.02-0.01-0.03-0.02-0.05c-2.91-2.26-4.8-5.78-4.8-9.75c0-6.8,5.51-12.31,12.31-12.31
			C328.135,315.527,333.655,321.037,333.655,327.837z"/>
		<path style="fill:#FF8E77;" d="M314.643,332.818c0,0-0.792-4.292-4.125-2.875c-3.333,1.417,1.042,12.625,4.667,6.542"/>
		<path style="fill:none;stroke:#EB4D4B;stroke-width:0.5;stroke-linecap:round;stroke-linejoin:round;stroke-miterlimit:10;" d="
			M310.727,332.652c0,0,0.188-1.583,1.531-1.25c1.344,0.333,0.927,3.792,0.927,3.792"/>
		<g>
			
				<ellipse style="fill:none;stroke:#130F40;stroke-width:0.5;stroke-linecap:round;stroke-linejoin:round;stroke-miterlimit:10;" cx="320.082" cy="334.271" rx="3.229" ry="2.916"/>
			<path style="fill:none;stroke:#130F40;stroke-width:0.5;stroke-linecap:round;stroke-linejoin:round;stroke-miterlimit:10;" d="
				M332.156,334.271c0,1.61-1.446,2.916-3.229,2.916c-1.784,0-3.229-1.305-3.229-2.916s1.446-2.916,3.229-2.916
				C330.711,331.355,332.156,332.661,332.156,334.271z"/>
			<path style="fill:none;stroke:#130F40;stroke-width:0.5;stroke-linecap:round;stroke-linejoin:round;stroke-miterlimit:10;" d="
				M323.302,334.48c0,0,1.218-0.874,2.405,0"/>
		</g>
		<path style="fill:none;stroke:#EB4D4B;stroke-width:0.5;stroke-linecap:round;stroke-linejoin:round;stroke-miterlimit:10;" d="
			M320.31,338.964c0,0,0.479,1.333,1.833,1.917"/>
		<path style="fill:#130F40;" d="M320.872,334.745c0,0.5-0.213,0.906-0.476,0.906c-0.263,0-0.476-0.406-0.476-0.906
			s0.213-0.906,0.476-0.906C320.659,333.839,320.872,334.245,320.872,334.745z"/>
		<path style="fill:#130F40;" d="M329.622,334.745c0,0.5-0.213,0.906-0.476,0.906c-0.263,0-0.476-0.406-0.476-0.906
			s0.213-0.906,0.476-0.906C329.409,333.839,329.622,334.245,329.622,334.745z"/>
		<path style="fill:none;stroke:#EB4D4B;stroke-width:0.5;stroke-linecap:round;stroke-linejoin:round;stroke-miterlimit:10;" d="
			M324.872,335.652c0,0,0.462,3,2.262,3.938l-2.63,1"/>
		<path style="fill:#6A6AE2;" d="M332.515,466.137h-24.58c0.48-1.06,1.07-2.23,1.81-3.47c0.39-0.66,0.83-1.33,1.31-2.02
			c2.3-3.24,4.81-5.52,6.8-7.04l-0.34-2.66l10-2.17l4,13.89L332.515,466.137z"/>
		<path style="fill:#171659;" d="M300.5,404.461l10.623,51.566l19.313-5.375l-11.597-50.197c-1.182-5.118-6.334-8.269-11.429-6.991
			l0,0C302.532,394.687,299.485,399.536,300.5,404.461z"/>
		<path style="fill:#CACAFF;" d="M331.515,462.667l1,3.47h-24.58c0.48-1.06,1.07-2.23,1.81-3.47H331.515z"/>
		<polygon style="fill:#CACAFF;" points="368.015,466.137 333.605,466.137 335.155,462.667 362.505,462.667 		"/>
	</g>
	<path style="fill:#F4CC4D;" d="M381.882,151.126c0,0,0.229-18.566,18.566-18.566c0,0-18.566-0.229-18.566-18.566
		c0,0-0.229,18.566-18.566,18.566C363.315,132.56,381.882,132.789,381.882,151.126z"/>
	<path style="fill:#F4CC4D;" d="M354.948,125.631c0,0,0.143-11.637,11.637-11.637c0,0-11.637-0.144-11.637-11.637
		c0,0-0.144,11.637-11.637,11.637C343.311,113.994,354.948,114.137,354.948,125.631z"/>
	<g>
		<path style="fill:none;stroke:#043C92;stroke-width:0.75;stroke-linecap:round;stroke-linejoin:round;stroke-miterlimit:10;" d="
			M571.093,375.693c6.333-11.167-0.333-31.667,10.667-45.167s26-9.333,28.167,0c2.167,9.333-11.333,9.167-10.5-1
			c0.833-10.167,25.833-16.833,16.833-28.333"/>
		
			<line style="fill:none;stroke:#130F40;stroke-width:0.75;stroke-linecap:round;stroke-linejoin:round;stroke-miterlimit:10;" x1="547.402" y1="376.527" x2="543.568" y2="339.22"/>
		<circle style="fill:#171659;" cx="543.568" cy="339.22" r="2.817"/>
		<g>
			<defs>
				<path id="SVGID_1_" d="M602.38,416.417c0,5.82-1,11.41-2.84,16.6c-6.83,19.3-25.24,33.12-46.88,33.12
					c-16.88,0-31.8-8.41-40.79-21.28c-5.62-8.06-8.93-17.86-8.93-28.44c0-2.04,0.12-4.06,0.37-6.03
					c2.97-24.62,23.93-43.69,49.35-43.69c11.68,0,22.41,4.03,30.9,10.76C595.03,386.567,602.38,400.637,602.38,416.417z"/>
			</defs>
			<clipPath id="SVGID_00000077317076564891002790000006923653186493377934_">
				<use xlink:href="#SVGID_1_"  style="overflow:visible;"/>
			</clipPath>
			<path style="clip-path:url(#SVGID_00000077317076564891002790000006923653186493377934_);fill:#54C3EA;" d="M602.38,416.417
				c0,5.82-1,11.41-2.84,16.6c-6.83,19.3-25.24,33.12-46.88,33.12c-16.88,0-31.8-8.41-40.79-21.28c-5.62-8.06-8.93-17.86-8.93-28.44
				c0-2.04,0.12-4.06,0.37-6.03c2.97-24.62,23.93-43.69,49.35-43.69c11.68,0,22.41,4.03,30.9,10.76
				C595.03,386.567,602.38,400.637,602.38,416.417z"/>
			<g style="clip-path:url(#SVGID_00000077317076564891002790000006923653186493377934_);">
				
					<path style="fill:none;stroke:#043C92;stroke-width:0.75;stroke-linecap:round;stroke-linejoin:round;stroke-miterlimit:10;" d="
					M500.433,397.096c0,0,28.451,28.621,21.504,65.097"/>
				
					<path style="fill:none;stroke:#043C92;stroke-width:0.75;stroke-linecap:round;stroke-linejoin:round;stroke-miterlimit:10;" d="
					M502.937,391.693c0,0,37.667,15.22,29.833,74.443"/>
				
					<path style="fill:none;stroke:#043C92;stroke-width:0.75;stroke-linecap:round;stroke-linejoin:round;stroke-miterlimit:10;" d="
					M509.937,383.36c0,0,17.833,3.683,29,32.758c11.167,29.075,7,54.409,7,54.409"/>
				
					<path style="fill:none;stroke:#043C92;stroke-width:0.75;stroke-linecap:round;stroke-linejoin:round;stroke-miterlimit:10;" d="
					M515.966,375.36c0,0,24.638,0.333,38.138,32.667c13.5,32.333,10.833,58.11,10.833,58.11"/>
				
					<path style="fill:none;stroke:#043C92;stroke-width:0.75;stroke-linecap:round;stroke-linejoin:round;stroke-miterlimit:10;" d="
					M529.604,366.697c0,0,23.833-1.503,43.667,41.663c19.833,43.167,1.167,60.5,1.167,60.5"/>
				
					<path style="fill:none;stroke:#043C92;stroke-width:0.75;stroke-linecap:round;stroke-linejoin:round;stroke-miterlimit:10;" d="
					M552.66,363.027c0,0,26.777,14.76,35.277,48.13c8.5,33.37,1.5,47.87,1.5,47.87"/>
			</g>
			<path style="clip-path:url(#SVGID_00000077317076564891002790000006923653186493377934_);fill:#54C3EA;" d="M602.38,416.417
				c0,5.82-1,11.41-2.84,16.6c-42.58-11.43-74.82,3.94-87.67,11.84c-5.62-8.06-8.93-17.86-8.93-28.44c0-2.04,0.12-4.06,0.37-6.03
				c8.26-7.13,20.426-16.479,36.976-23.319c16.81-6.94,33.734-10.416,43.274-9.611C595.03,386.567,602.38,400.637,602.38,416.417z"
				/>
			<g style="clip-path:url(#SVGID_00000077317076564891002790000006923653186493377934_);">
				
					<path style="fill:none;stroke:#043C92;stroke-width:0.75;stroke-linecap:round;stroke-linejoin:round;stroke-miterlimit:10;" d="
					M505.77,449.027c0,0,41.333-33.667,101-13.833"/>
				
					<path style="fill:none;stroke:#043C92;stroke-width:0.75;stroke-linecap:round;stroke-linejoin:round;stroke-miterlimit:10;" d="
					M589.437,377.193c-51-2.167-90,36.667-90,36.667"/>
				
					<path style="fill:none;stroke:#043C92;stroke-width:0.75;stroke-linecap:round;stroke-linejoin:round;stroke-miterlimit:10;" d="
					M498.77,423.193c0,0,45.333-35.833,97.5-36.667"/>
				
					<path style="fill:none;stroke:#043C92;stroke-width:0.75;stroke-linecap:round;stroke-linejoin:round;stroke-miterlimit:10;" d="
					M501.27,430.86c0,0,47.833-36.333,102.167-28.333"/>
				
					<path style="fill:none;stroke:#043C92;stroke-width:0.75;stroke-linecap:round;stroke-linejoin:round;stroke-miterlimit:10;" d="
					M502.937,438.982c0,0,43.833-32.789,106.833-18.789"/>
			</g>
		</g>
		
			<line style="fill:none;stroke:#130F40;stroke-width:0.75;stroke-linecap:round;stroke-linejoin:round;stroke-miterlimit:10;" x1="575.27" y1="386.193" x2="604.77" y2="344.193"/>
		
			<line style="fill:none;stroke:#130F40;stroke-width:0.75;stroke-linecap:round;stroke-linejoin:round;stroke-miterlimit:10;" x1="527.19" y1="393.635" x2="502.94" y2="340.634"/>
		<circle style="fill:#171659;" cx="604.77" cy="344.193" r="2.817"/>
		<circle style="fill:#171659;" cx="502.94" cy="340.634" r="2.817"/>
	</g>
	<g>
		<path style="fill:#54C3EA;" d="M128,291c-6.435,0-6.445,10,0,10C134.435,301,134.445,291,128,291z"/>
		<path style="fill:#54C3EA;" d="M597.5,246c-6.435,0-6.445,10,0,10C603.935,256,603.945,246,597.5,246z"/>
		<path style="fill:#54C3EA;" d="M624.5,394c-6.435,0-6.445,10,0,10C630.935,404,630.945,394,624.5,394z"/>
		<path style="fill:#54C3EA;" d="M614,432.5c-2.574,0-2.578,4,0,4C616.574,436.5,616.578,432.5,614,432.5z"/>
		<path style="fill:#54C3EA;" d="M614.5,363c-2.574,0-2.578,4,0,4C617.074,367,617.078,363,614.5,363z"/>
		<path style="fill:#54C3EA;" d="M577,286c-2.574,0-2.578,4,0,4C579.574,290,579.578,286,577,286z"/>
		<path style="fill:#54C3EA;" d="M131.5,353c-2.574,0-2.578,4,0,4C134.074,357,134.078,353,131.5,353z"/>
	</g>
</g>
</svg>
